<svg xmlns="http://www.w3.org/2000/svg" viewBox="0 0 512 512"><path d="M397.373 239.049l-60.591-67.087a34.09 34.09 0 00-25.298-11.241h-158.47a34.083 34.083 0 00-25.674 11.664l-56.728 66.113a16.454 16.454 0 01-12.487 5.739H30.457c-6.881 0-12.569 5.364-12.973 12.233l-4.575 77.896h489.83l-25.579-79.599a14.068 14.068 0 00-13.615-10.53h-54.491a15.734 15.734 0 01-11.681-5.188z" fill="#ffb547"/><path d="M397.373 239.049l-60.591-67.087a34.09 34.09 0 00-25.298-11.241h-158.47a34.083 34.083 0 00-25.674 11.664l-56.728 66.113a16.454 16.454 0 01-12.487 5.739H30.457c-6.881 0-12.569 5.364-12.973 12.233l-4.575 77.896h489.83l-25.579-79.599a14.068 14.068 0 00-13.615-10.53h-54.491a15.734 15.734 0 01-11.681-5.188z" fill="#ffb547"/><g fill="#ff6361"><path d="M486.504 283.846h-27.169a4.78 4.78 0 00-4.781 4.781v15.112a4.78 4.78 0 004.781 4.781h35.098l-7.929-24.674zM36.475 283.846h-20.6l-1.45 24.675h22.048a4.78 4.78 0 004.781-4.781v-15.112a4.778 4.778 0 00-4.779-4.782z"/></g><g fill="#99daea"><path d="M252.62 241.626h97.076c5.892 0 8.995-6.984 5.044-11.356l-39.911-44.172a6.795 6.795 0 00-5.044-2.24H252.42a6.798 6.798 0 00-6.798 6.829l.201 44.172a6.798 6.798 0 006.797 6.767zM213.733 183.856h-56.885a6.794 6.794 0 00-5.166 2.38l-37.781 44.172c-3.774 4.412-.639 11.218 5.166 11.218h94.666a6.797 6.797 0 006.798-6.798v-44.172c0-3.757-3.043-6.8-6.798-6.8z"/></g><path d="M497.981 319.563H35.776l4.425-75.326h-9.744c-6.881 0-12.569 5.364-12.973 12.233l-4.575 77.896h489.83l-4.758-14.803z" opacity=".1"/><path d="M42.177 345.916H7.636A7.636 7.636 0 010 338.28v-22.123a7.636 7.636 0 017.636-7.636h34.54a7.636 7.636 0 017.636 7.636v22.123a7.634 7.634 0 01-7.635 7.636z" fill="#c3c6c8"/><path d="M179.613 334.367c0-31.545-25.572-57.118-57.118-57.118-31.544 0-57.118 25.572-57.118 57.118h114.236z" opacity=".15"/><g fill="#333e48"><circle cx="122.493" cy="334.362" r="50.522"/><circle cx="122.493" cy="334.362" r="50.522"/></g><path d="M130.191 376.64c-27.903 0-50.522-22.619-50.522-50.522A50.29 50.29 0 0189.6 296.04c-10.785 9.265-17.627 22.993-17.627 38.327 0 27.902 22.619 50.522 50.522 50.522 16.632 0 31.385-8.04 40.591-20.443-8.84 7.594-20.327 12.194-32.895 12.194z" opacity=".15"/><circle cx="122.493" cy="334.362" r="21.863" fill="#d1d3d3"/><path d="M430.946 334.367c0-31.545-25.572-57.118-57.118-57.118-31.544 0-57.118 25.572-57.118 57.118h114.236z" opacity=".15"/><g fill="#333e48"><circle cx="373.825" cy="334.362" r="50.522"/><circle cx="373.825" cy="334.362" r="50.522"/></g><circle cx="373.825" cy="334.362" r="21.863" fill="#d1d3d3"/><path d="M381.524 376.64c-27.903 0-50.522-22.619-50.522-50.522a50.29 50.29 0 019.931-30.078c-10.785 9.265-17.627 22.993-17.627 38.327 0 27.902 22.619 50.522 50.522 50.522 16.632 0 31.385-8.04 40.591-20.443-8.839 7.594-20.327 12.194-32.895 12.194z" opacity=".15"/><path d="M504.364 345.916h-51.403a7.636 7.636 0 01-7.636-7.636v-22.123a7.635 7.635 0 017.636-7.636h51.403a7.635 7.635 0 017.636 7.636v22.123a7.636 7.636 0 01-7.636 7.636z" fill="#c3c6c8"/><g fill="#333e48"><path d="M370.765 253.413h-30.196a5.834 5.834 0 01-5.835-5.835v-14.477a5.834 5.834 0 015.835-5.835h30.196a5.834 5.834 0 015.835 5.835v14.477a5.834 5.834 0 01-5.835 5.835zM174.308 268.985h16.542v16.542h-16.542z"/></g><path fill="#fff" d="M190.839 268.985h16.542v16.542h-16.542z"/><path fill="#333e48" d="M207.381 268.985h16.542v16.542h-16.542z"/><path fill="#fff" d="M223.912 268.985h16.542v16.542h-16.542z"/><path fill="#333e48" d="M240.454 268.985h16.542v16.542h-16.542z"/><path fill="#fff" d="M256.985 268.985h16.542v16.542h-16.542z"/><g fill="#333e48"><path d="M273.528 268.985h16.542v16.542h-16.542zM190.839 285.516h16.542v16.542h-16.542z"/></g><path fill="#fff" d="M207.381 285.516h16.542v16.542h-16.542z"/><path fill="#333e48" d="M223.912 285.516h16.542v16.542h-16.542z"/><path fill="#fff" d="M240.454 285.516h16.542v16.542h-16.542z"/><path fill="#333e48" d="M256.985 285.516h16.542v16.542h-16.542z"/><path fill="#fff" d="M290.059 268.985h16.542v16.542h-16.542z"/><path fill="#333e48" d="M306.59 268.985h16.542v16.542H306.59z"/><path fill="#fff" d="M273.528 285.516h16.542v16.542h-16.542z"/><path fill="#333e48" d="M290.059 285.516h16.542v16.542h-16.542z"/><path d="M293.77 127.111h-10.2c-5.292 0-9.826 3.78-10.779 8.985l-4.508 24.625h40.776l-4.508-24.625a10.963 10.963 0 00-10.781-8.985z" fill="#c3c6c8"/><path d="M137.214 271.011h-24.958a8.249 8.249 0 01-8.249-8.249 8.249 8.249 0 018.249-8.249h24.958a8.249 8.249 0 110 16.498z" fill="#333e48"/></svg>